<svg id="Capa_2" data-name="Capa 2" xmlns="http://www.w3.org/2000/svg" xmlns:xlink="http://www.w3.org/1999/xlink" viewBox="0 0 805.766 515.765"><defs><style>.cls-1{fill:#1b5b5d;stroke:#1b5b5d;stroke-miterlimit:10;}.cls-2{fill:url(#linear-gradient);}.cls-3{fill:url(#linear-gradient-2);}.cls-4{fill:url(#linear-gradient-3);}.cls-5{fill:url(#linear-gradient-4);}.cls-6{fill:url(#linear-gradient-5);}.cls-7{fill:url(#linear-gradient-6);}.cls-8{font-size:176px;font-family:AndrianiRegular;}.cls-9{letter-spacing:0.004em;}.cls-10{letter-spacing:0em;}.cls-11{letter-spacing:-0.004em;}.cls-12{fill:url(#Degradado_sin_nombre_134);stroke:#1b5b5d;stroke-width:0.8;stroke-linejoin:round;paint-order:stroke fill;}</style><linearGradient id="linear-gradient" x1="300.333" y1="66.129" x2="415.83" y2="66.129" gradientUnits="userSpaceOnUse"><stop offset="0" stop-color="#f3bf6a"/><stop offset="0" stop-color="#d19d48"/><stop offset="0.261" stop-color="#b98730"/><stop offset="0.685" stop-color="#f8ee81"/><stop offset="1" stop-color="#8f5d14"/></linearGradient><linearGradient id="linear-gradient-2" x1="260.234" y1="164.256" x2="423.064" y2="164.256" xlink:href="#linear-gradient"/><linearGradient id="linear-gradient-3" x1="460.043" y1="155.618" x2="544.399" y2="155.618" xlink:href="#linear-gradient"/><linearGradient id="linear-gradient-4" x1="289.362" y1="259.703" x2="512.851" y2="259.703" xlink:href="#linear-gradient"/><linearGradient id="linear-gradient-5" x1="259.234" y1="178.128" x2="545.534" y2="178.128" xlink:href="#linear-gradient"/><linearGradient id="linear-gradient-6" x1="259.234" y1="206.013" x2="479.872" y2="206.013" xlink:href="#linear-gradient"/><linearGradient id="Degradado_sin_nombre_134" x1="178.232" y1="338.286" x2="666.869" y2="535.317" gradientUnits="userSpaceOnUse"><stop offset="0.027" stop-color="#ddb54a"/><stop offset="0.056" stop-color="#e1bd53"/><stop offset="0.151" stop-color="#ebd36e"/><stop offset="0.249" stop-color="#f3e381"/><stop offset="0.349" stop-color="#f8ec8c"/><stop offset="0.456" stop-color="#f9ef90"/><stop offset="1" stop-color="#e7ba4a"/></linearGradient></defs><title>Logo Resolutiva</title><rect class="cls-1" x="0.5" y="0.5" width="804.766" height="506.229"/><path class="cls-2" d="M298.787,35.66l-.151,20.554L298.4,88.948l-.055,7.478a3.043,3.043,0,0,0,3,3h99.568c4.565,0,9.162.158,13.725,0,.065,0,.131,0,.2,0a3.043,3.043,0,0,0,3-3V35.66c0-3.86-6-3.867-6,0V96.426l3-3H305.987c-1.469,0-2.983-.106-4.45,0-.065,0-.131,0-.2,0l3,3,.152-20.554.24-32.734.055-7.478c.029-3.861-5.971-3.865-6,0Z" transform="translate(0.5 0.5)"/><path class="cls-3" d="M260.234,138.66H415.475c2.093,0,4.23.126,6.321,0,.088,0,.179,0,.268,0l-3-3v57.192l3-3H280.179c-6.549,0-13.129-.186-19.677,0-.089,0-.179,0-.268,0-3.861,0-3.867,6,0,6H402.119c6.549,0,13.129.186,19.677,0,.089,0,.179,0,.268,0a3.044,3.044,0,0,0,3-3V135.66a3.044,3.044,0,0,0-3-3H280.179c-6.549,0-13.129-.186-19.677,0-.089,0-.179,0-.268,0-3.861,0-3.867,6,0,6Z" transform="translate(0.5 0.5)"/><path class="cls-4" d="M544.4,106.618H461.043a3.043,3.043,0,0,0-3,3v80.628c0,3.727-.139,7.484,0,11.21,0,.054,0,.108,0,.162a3.043,3.043,0,0,0,3,3h83.192c3.861,0,3.868-6,0-6H461.043l3,3V113.4c0-1.192.091-2.425,0-3.615,0-.054,0-.109,0-.162l-3,3H544.4c3.861,0,3.867-6,0-6Z" transform="translate(0.5 0.5)"/><path class="cls-5" d="M290.362,240.745H502.834c2.874,0,5.777.118,8.65,0,.122,0,.245,0,.367,0l-3-3V281.66l3-3H299.379c-2.874,0-5.777-.117-8.65,0-.122,0-.245,0-.367,0l3,3V237.745c0-3.86-6-3.867-6,0V281.66a3.043,3.043,0,0,0,3,3H502.834c2.881,0,5.769.057,8.65,0,.122,0,.245,0,.367,0a3.043,3.043,0,0,0,3-3V237.745a3.044,3.044,0,0,0-3-3H299.379c-2.881,0-5.769-.056-8.65,0-.122,0-.245,0-.367,0C286.5,234.745,286.5,240.745,290.362,240.745Z" transform="translate(0.5 0.5)"/><path class="cls-6" d="M274.021,55.639H260.234l3,3V35.66l-3,3H531.2c4.255,0,8.528.113,12.782,0,.183,0,.367,0,.55,0l-3-3-.014,7.664-.037,20.669-.055,30.766-.067,37.279-.073,41.108-.074,41.215-.07,38.691-.058,32.478-.042,23.515c-.007,3.679-.154,7.39-.02,11.068.006.16,0,.323,0,.483l3-3H511.34l3,3V310.128c0-3.86-6-3.867-6,0V320.6a3.044,3.044,0,0,0,3,3h32.681a3.044,3.044,0,0,0,3-3l.014-7.663.037-20.67.055-30.765.067-37.279.074-41.108.074-41.215.069-38.691.058-32.478.042-23.515c.007-3.687.078-7.381.02-11.068,0-.161,0-.322,0-.484a3.044,3.044,0,0,0-3-3h-284.3a3.044,3.044,0,0,0-3,3V58.639a3.044,3.044,0,0,0,3,3h13.787c3.861,0,3.867-6,0-6Z" transform="translate(0.5 0.5)"/><path class="cls-7" d="M275.34,88.405H260.234a3.043,3.043,0,0,0-3,3V311.288c0,2.971-.058,5.949,0,8.919,0,.13,0,.26,0,.389a3.044,3.044,0,0,0,3,3H470.017c2.83,0,5.666.058,8.5,0,.12,0,.24,0,.36,0a3.043,3.043,0,0,0,3-3V309.873c0-3.861-6-3.867-6,0V320.6l3-3H269.089c-2.822,0-5.674-.118-8.5,0-.119.006-.24,0-.36,0l3,3V100.713c0-2.964.121-5.957,0-8.919,0-.129,0-.26,0-.389l-3,3H275.34c3.861,0,3.868-6,0-6Z" transform="translate(0.5 0.5)"/><text class="cls-8" transform="translate(33.48 471.765)"><tspan class="cls-9">R</tspan><tspan class="cls-10" x="95.391" y="0">esoluti</tspan><tspan class="cls-11" x="587.832" y="0">v</tspan><tspan x="671.782" y="0">a</tspan></text><path class="cls-12" d="M46.355,354.228c7.744-1.584,18.832-2.463,29.391-2.463,16.368,0,26.927,2.991,34.32,9.679,5.983,5.28,9.327,13.375,9.327,22.528,0,15.663-9.856,26.046-22.351,30.27v.528c9.151,3.168,14.608,11.616,17.423,23.936,3.872,16.543,6.688,27.982,9.152,32.559h-15.84c-1.936-3.344-4.575-13.552-7.919-28.335C96.337,426.561,90,420.4,76.1,419.874H61.667v51.391H46.355Zm15.312,54.031H77.33c16.368,0,26.752-8.976,26.752-22.528,0-15.311-11.088-22-27.28-22.175-7.391,0-12.672.7-15.135,1.408Z" transform="translate(0.5 0.5)"/><path class="cls-12" d="M149.841,431.49c.352,20.944,13.728,29.567,29.216,29.567,11.088,0,17.775-1.936,23.583-4.4l2.64,11.088c-5.456,2.464-14.784,5.279-28.335,5.279-26.223,0-41.887-17.247-41.887-42.942s15.135-45.935,39.951-45.935c27.807,0,35.2,24.463,35.2,40.127a58.416,58.416,0,0,1-.528,7.216ZM195.248,420.4c.176-9.855-4.048-25.167-21.471-25.167-15.664,0-22.527,14.431-23.759,25.167Z" transform="translate(0.5 0.5)"/><path class="cls-12" d="M227.28,455.425a40.59,40.59,0,0,0,20.415,6.16c11.264,0,16.544-5.632,16.544-12.672,0-7.392-4.4-11.439-15.839-15.663-15.312-5.456-22.528-13.9-22.528-24.111,0-13.728,11.088-24.992,29.391-24.992a42.517,42.517,0,0,1,20.944,5.28l-3.872,11.263a33.162,33.162,0,0,0-17.424-4.927c-9.151,0-14.255,5.28-14.255,11.616,0,7.039,5.1,10.207,16.191,14.431,14.784,5.632,22.352,13.024,22.352,25.695,0,14.96-11.616,25.519-31.855,25.519-9.328,0-17.952-2.288-23.936-5.807Z" transform="translate(0.5 0.5)"/><path class="cls-12" d="M376.173,427.97c0,31.5-21.823,45.23-42.415,45.23-23.055,0-40.83-16.895-40.83-43.822,0-28.512,18.655-45.231,42.239-45.231C359.629,384.147,376.173,401.923,376.173,427.97Zm-67.582.88c0,18.655,10.736,32.735,25.871,32.735,14.784,0,25.872-13.9,25.872-33.087,0-14.432-7.216-32.735-25.52-32.735S308.591,412.658,308.591,428.85Z" transform="translate(0.5 0.5)"/><path class="cls-12" d="M395.712,346.309H411.2V471.265H395.712Z" transform="translate(0.5 0.5)"/><path class="cls-12" d="M508.524,448.033c0,8.8.176,16.544.7,23.232H495.5l-.88-13.9h-.352A32.048,32.048,0,0,1,466.109,473.2c-13.376,0-29.392-7.391-29.392-37.31V386.083h15.489V433.25c0,16.191,4.927,27.1,19.006,27.1,10.384,0,17.6-7.215,20.417-14.079a22.668,22.668,0,0,0,1.407-7.92v-52.27h15.488Z" transform="translate(0.5 0.5)"/><path class="cls-12" d="M552.877,361.62v24.463h22.175v11.792H552.877V443.81c0,10.559,2.992,16.542,11.616,16.542a34.453,34.453,0,0,0,8.975-1.055l.7,11.616c-2.992,1.231-7.744,2.111-13.727,2.111-7.216,0-13.024-2.288-16.72-6.511-4.4-4.577-5.984-12.144-5.984-22.175V397.875h-13.2V386.083h13.2V365.668Z" transform="translate(0.5 0.5)"/><path class="cls-12" d="M609.722,362.147c.177,5.281-3.695,9.5-9.855,9.5a9.208,9.208,0,0,1-9.327-9.5,9.435,9.435,0,0,1,9.679-9.678C606.027,352.469,609.722,356.692,609.722,362.147ZM592.475,471.265V386.083h15.487v85.182Z" transform="translate(0.5 0.5)"/><path class="cls-12" d="M639.642,386.083l16.72,47.871a218.966,218.966,0,0,1,6.864,21.823h.528c1.936-7.04,4.4-14.08,7.215-21.823l16.544-47.871h16.192l-33.44,85.182H655.482L623.1,386.083Z" transform="translate(0.5 0.5)"/><path class="cls-12" d="M764.776,471.265l-1.232-10.736h-.529c-4.751,6.688-13.9,12.671-26.047,12.671-17.247,0-26.047-12.143-26.047-24.463,0-20.592,18.3-31.855,51.214-31.678V415.3c0-7.039-1.935-19.711-19.359-19.711a42.439,42.439,0,0,0-22.175,6.336l-3.52-10.208c7.04-4.576,17.248-7.568,27.983-7.568,26.047,0,32.383,17.776,32.383,34.847V450.85a119.935,119.935,0,0,0,1.408,20.415Zm-2.288-43.471c-16.9-.352-36.079,2.64-36.079,19.183,0,10.032,6.687,14.784,14.607,14.784a21.194,21.194,0,0,0,20.592-14.256,16.2,16.2,0,0,0,.88-4.928Z" transform="translate(0.5 0.5)"/></svg>