<svg id="Capa_2" data-name="Capa 2" xmlns="http://www.w3.org/2000/svg" xmlns:xlink="http://www.w3.org/1999/xlink" viewBox="0 0 805.766 515.765"><defs><style>.cls-1,.cls-12{fill:#0b4743;}.cls-1{stroke:#0b4743;stroke-miterlimit:10;}.cls-2{fill:url(#linear-gradient);}.cls-3{fill:url(#linear-gradient-2);}.cls-4{fill:url(#linear-gradient-3);}.cls-5{fill:url(#linear-gradient-4);}.cls-6{fill:url(#linear-gradient-5);}.cls-7{fill:url(#linear-gradient-6);}.cls-8{font-size:176px;font-family:AndrianiRegular;}.cls-9{letter-spacing:0.004em;}.cls-10{letter-spacing:0em;}.cls-11{letter-spacing:-0.004em;}.cls-13{fill:url(#Degradado_sin_nombre_134);}</style><linearGradient id="linear-gradient" x1="300.333" y1="66.129" x2="415.83" y2="66.129" gradientUnits="userSpaceOnUse"><stop offset="0" stop-color="#f3bf6a"/><stop offset="0" stop-color="#d19d48"/><stop offset="0.261" stop-color="#b98730"/><stop offset="0.685" stop-color="#f8ee81"/><stop offset="1" stop-color="#8f5d14"/></linearGradient><linearGradient id="linear-gradient-2" x1="260.234" y1="164.256" x2="423.064" y2="164.256" xlink:href="#linear-gradient"/><linearGradient id="linear-gradient-3" x1="460.043" y1="155.618" x2="544.399" y2="155.618" xlink:href="#linear-gradient"/><linearGradient id="linear-gradient-4" x1="289.362" y1="259.703" x2="512.851" y2="259.703" xlink:href="#linear-gradient"/><linearGradient id="linear-gradient-5" x1="259.234" y1="178.128" x2="545.534" y2="178.128" xlink:href="#linear-gradient"/><linearGradient id="linear-gradient-6" x1="259.234" y1="206.013" x2="479.872" y2="206.013" xlink:href="#linear-gradient"/><linearGradient id="Degradado_sin_nombre_134" x1="178.232" y1="338.286" x2="666.869" y2="535.317" gradientUnits="userSpaceOnUse"><stop offset="0.027" stop-color="#ddb54a"/><stop offset="0.056" stop-color="#e1bd53"/><stop offset="0.151" stop-color="#ebd36e"/><stop offset="0.249" stop-color="#f3e381"/><stop offset="0.349" stop-color="#f8ec8c"/><stop offset="0.456" stop-color="#f9ef90"/><stop offset="1" stop-color="#e7ba4a"/></linearGradient></defs><title>Logo Resolutiva recorte</title><rect class="cls-1" x="0.5" y="0.5" width="804.766" height="500.633"/><path class="cls-2" d="M298.787,35.66l-.151,20.554L298.4,88.948l-.055,7.478a3.043,3.043,0,0,0,3,3h99.568c4.565,0,9.162.158,13.725,0,.065,0,.131,0,.2,0a3.043,3.043,0,0,0,3-3V35.66c0-3.86-6-3.867-6,0V96.426l3-3H305.987c-1.469,0-2.983-.106-4.45,0-.065,0-.131,0-.2,0l3,3,.152-20.554.24-32.734.055-7.478c.029-3.861-5.971-3.865-6,0Z" transform="translate(0.5 0.5)"/><path class="cls-3" d="M260.234,138.66H415.475c2.093,0,4.23.126,6.321,0,.088,0,.179,0,.268,0l-3-3v57.192l3-3H280.179c-6.549,0-13.129-.186-19.677,0-.089,0-.179,0-.268,0-3.861,0-3.867,6,0,6H402.119c6.549,0,13.129.186,19.677,0,.089,0,.179,0,.268,0a3.044,3.044,0,0,0,3-3V135.66a3.044,3.044,0,0,0-3-3H280.179c-6.549,0-13.129-.186-19.677,0-.089,0-.179,0-.268,0-3.861,0-3.867,6,0,6Z" transform="translate(0.5 0.5)"/><path class="cls-4" d="M544.4,106.618H461.043a3.043,3.043,0,0,0-3,3v80.628c0,3.727-.139,7.484,0,11.21,0,.054,0,.108,0,.162a3.043,3.043,0,0,0,3,3h83.192c3.861,0,3.868-6,0-6H461.043l3,3V113.4c0-1.192.091-2.425,0-3.615,0-.054,0-.109,0-.162l-3,3H544.4c3.861,0,3.867-6,0-6Z" transform="translate(0.5 0.5)"/><path class="cls-5" d="M290.362,240.745H502.834c2.874,0,5.777.118,8.65,0,.122,0,.245,0,.367,0l-3-3V281.66l3-3H299.379c-2.874,0-5.777-.117-8.65,0-.122,0-.245,0-.367,0l3,3V237.745c0-3.86-6-3.867-6,0V281.66a3.043,3.043,0,0,0,3,3H502.834c2.881,0,5.769.057,8.65,0,.122,0,.245,0,.367,0a3.043,3.043,0,0,0,3-3V237.745a3.044,3.044,0,0,0-3-3H299.379c-2.881,0-5.769-.056-8.65,0-.122,0-.245,0-.367,0C286.5,234.745,286.5,240.745,290.362,240.745Z" transform="translate(0.5 0.5)"/><path class="cls-6" d="M274.021,55.639H260.234l3,3V35.66l-3,3H531.2c4.255,0,8.528.113,12.782,0,.183,0,.367,0,.55,0l-3-3-.014,7.664-.037,20.669-.055,30.766-.067,37.279-.073,41.108-.074,41.215-.07,38.691-.058,32.478-.042,23.515c-.007,3.679-.154,7.39-.02,11.068.006.16,0,.323,0,.483l3-3H511.34l3,3V310.128c0-3.86-6-3.867-6,0V320.6a3.044,3.044,0,0,0,3,3h32.681a3.044,3.044,0,0,0,3-3l.014-7.663.037-20.67.055-30.765.067-37.279.074-41.108.074-41.215.069-38.691.058-32.478.042-23.515c.007-3.687.078-7.381.02-11.068,0-.161,0-.322,0-.484a3.044,3.044,0,0,0-3-3h-284.3a3.044,3.044,0,0,0-3,3V58.639a3.044,3.044,0,0,0,3,3h13.787c3.861,0,3.867-6,0-6Z" transform="translate(0.5 0.5)"/><path class="cls-7" d="M275.34,88.405H260.234a3.043,3.043,0,0,0-3,3V311.288c0,2.971-.058,5.949,0,8.919,0,.13,0,.26,0,.389a3.044,3.044,0,0,0,3,3H470.017c2.83,0,5.666.058,8.5,0,.12,0,.24,0,.36,0a3.043,3.043,0,0,0,3-3V309.873c0-3.861-6-3.867-6,0V320.6l3-3H269.089c-2.822,0-5.674-.118-8.5,0-.119.006-.24,0-.36,0l3,3V100.713c0-2.964.121-5.957,0-8.919,0-.129,0-.26,0-.389l-3,3H275.34c3.861,0,3.868-6,0-6Z" transform="translate(0.5 0.5)"/><text class="cls-8" transform="translate(33.48 471.765)"><tspan class="cls-9">R</tspan><tspan class="cls-10" x="95.391" y="0">esoluti</tspan><tspan class="cls-11" x="587.832" y="0">v</tspan><tspan x="671.782" y="0">a</tspan></text><path class="cls-12" d="M107.777,493.941a22.679,22.679,0,0,1-19.625-11.313,47.452,47.452,0,0,1-3.9-9.266,22.678,22.678,0,0,1-22.581,20.579H46.355a22.676,22.676,0,0,1-22.677-22.676V354.228a22.675,22.675,0,0,1,18.133-22.216c9.084-1.859,21.453-2.924,33.935-2.924,13.861,0,34.05,1.6,49.433,15.449,10.737,9.533,16.891,23.9,16.891,39.435a53.5,53.5,0,0,1-11.21,33.347,72.317,72.317,0,0,1,5.7,16.271c1.787,7.636,5.47,23.364,7.138,27.136a22.677,22.677,0,0,1-20.079,33.215Z" transform="translate(0.5 0.5)"/><path class="cls-12" d="M176.945,495.7c-38.014,0-64.564-26.983-64.564-65.619,0-39.756,26.339-68.611,62.628-68.611,39.765,0,57.876,32.555,57.876,62.8a74.637,74.637,0,0,1-.6,9.141l-.068.583a22.631,22.631,0,0,1-8.209,15.068,22.8,22.8,0,0,1,.692,2.339l2.639,11.088a22.676,22.676,0,0,1-12.726,25.919C207.251,491.737,194.738,495.7,176.945,495.7Z" transform="translate(0.5 0.5)"/><path class="cls-12" d="M247.344,495.7c-13.049,0-25.633-3.174-35.432-8.937a22.679,22.679,0,0,1-10.049-26.622l3.872-11.792a22.675,22.675,0,0,1,8.037-11.14A43.154,43.154,0,0,1,203.2,409.139c0-27.176,22.385-47.668,52.068-47.668,11.6,0,23.443,3.078,32.5,8.446a22.675,22.675,0,0,1,9.886,26.881l-3.871,11.263a22.687,22.687,0,0,1-4.446,7.638c8.338,8.518,12.541,19.149,12.541,31.806C301.876,475.883,279.452,495.7,247.344,495.7Z" transform="translate(0.5 0.5)"/><path class="cls-12" d="M333.758,495.877c-36.8,0-63.507-27.967-63.507-66.5,0-39.349,27.3-67.907,64.916-67.907,36.9,0,63.684,27.966,63.684,66.5C398.851,472.552,366.105,495.877,333.758,495.877Zm.681-56.97c.9-.557,3.217-3.946,3.217-10.409,0-4.909-1.616-8.874-2.665-10.055-.051,0-.11,0-.177,0a3.842,3.842,0,0,0-.838.071c-.758.683-2.707,4.262-2.707,10.34,0,6.3,2.269,9.577,3.1,10.057h.069Z" transform="translate(0.5 0.5)"/><rect class="cls-12" x="373.534" y="324.132" width="60.841" height="170.31" rx="22.677"/><path class="cls-12" d="M466.109,495.877c-24.02,0-52.068-15.71-52.068-59.987V386.083a22.676,22.676,0,0,1,22.676-22.677h15.489A22.68,22.68,0,0,1,472.621,376.2a22.679,22.679,0,0,1,20.415-12.792h15.488A22.677,22.677,0,0,1,531.2,386.083v61.95c0,9.157.2,15.973.634,21.449a22.679,22.679,0,0,1-22.608,24.459H495.5a22.624,22.624,0,0,1-8.962-1.84A56.422,56.422,0,0,1,466.109,495.877Z" transform="translate(0.5 0.5)"/><path class="cls-12" d="M560.445,495.7c-13.545,0-25.4-4.918-33.436-13.86-10.7-11.443-11.945-26.856-11.945-37.5V418.482a22.678,22.678,0,0,1-13.2-20.607V386.083a22.681,22.681,0,0,1,13.2-20.608,22.678,22.678,0,0,1,16.818-21.714l15.136-4.048a22.677,22.677,0,0,1,28.535,21.907v1.791a22.678,22.678,0,0,1,22.176,22.672v11.792a22.678,22.678,0,0,1-22.176,22.672v16.167A22.674,22.674,0,0,1,596.1,457.925l.7,11.616a22.679,22.679,0,0,1-14,22.343C576.734,494.382,569,495.7,560.445,495.7Z" transform="translate(0.5 0.5)"/><path class="cls-12" d="M592.475,493.941A22.676,22.676,0,0,1,569.8,471.265V386.083a22.609,22.609,0,0,1,1.74-8.727,32.733,32.733,0,0,1-3.675-15.209,32.272,32.272,0,1,1,60.985,15.086,22.594,22.594,0,0,1,1.791,8.85v85.182a22.676,22.676,0,0,1-22.677,22.676Z" transform="translate(0.5 0.5)"/><path class="cls-12" d="M655.482,493.941a22.676,22.676,0,0,1-21.2-14.618L601.9,394.142a22.677,22.677,0,0,1,21.2-30.736h16.543a22.677,22.677,0,0,1,21.409,15.2l2.54,7.273,2.489-7.2a22.677,22.677,0,0,1,21.433-15.27h16.192a22.678,22.678,0,0,1,21.109,30.963l-33.44,85.183a22.677,22.677,0,0,1-21.109,14.389Z" transform="translate(0.5 0.5)"/><path class="cls-12" d="M736.968,495.877c-27.777,0-48.723-20.266-48.723-47.14,0-13.4,4.679-25.241,13.4-34.371a22.7,22.7,0,0,1-2.479-5.05l-3.521-10.208a22.679,22.679,0,0,1,9.079-26.407c10.981-7.138,25.686-11.23,40.343-11.23,33.962,0,55.06,22.041,55.06,57.523V450.85a95.369,95.369,0,0,0,1.043,16.359,22.677,22.677,0,0,1-22.312,26.732H764.776a22.638,22.638,0,0,1-8.162-1.515A57.176,57.176,0,0,1,736.968,495.877Zm9.151-43.582Z" transform="translate(0.5 0.5)"/><path class="cls-13" d="M46.355,354.228c7.744-1.584,18.832-2.463,29.391-2.463,16.368,0,26.927,2.991,34.32,9.679,5.983,5.28,9.327,13.375,9.327,22.528,0,15.663-9.856,26.046-22.351,30.27v.528c9.151,3.168,14.608,11.616,17.423,23.936,3.872,16.543,6.688,27.982,9.152,32.559h-15.84c-1.936-3.344-4.575-13.552-7.919-28.335C96.337,426.561,90,420.4,76.1,419.874H61.667v51.391H46.355Zm15.312,54.031H77.33c16.368,0,26.752-8.976,26.752-22.528,0-15.311-11.088-22-27.28-22.175-7.391,0-12.672.7-15.135,1.408Z" transform="translate(0.5 0.5)"/><path class="cls-13" d="M149.841,431.49c.352,20.944,13.728,29.567,29.216,29.567,11.088,0,17.775-1.936,23.583-4.4l2.64,11.088c-5.456,2.464-14.784,5.279-28.335,5.279-26.223,0-41.887-17.247-41.887-42.942s15.135-45.935,39.951-45.935c27.807,0,35.2,24.463,35.2,40.127a58.416,58.416,0,0,1-.528,7.216ZM195.248,420.4c.176-9.855-4.048-25.167-21.471-25.167-15.664,0-22.527,14.431-23.759,25.167Z" transform="translate(0.5 0.5)"/><path class="cls-13" d="M227.28,455.425a40.59,40.59,0,0,0,20.415,6.16c11.264,0,16.544-5.632,16.544-12.672,0-7.392-4.4-11.439-15.839-15.663-15.312-5.456-22.528-13.9-22.528-24.111,0-13.728,11.088-24.992,29.391-24.992a42.517,42.517,0,0,1,20.944,5.28l-3.872,11.263a33.162,33.162,0,0,0-17.424-4.927c-9.151,0-14.255,5.28-14.255,11.616,0,7.039,5.1,10.207,16.191,14.431,14.784,5.632,22.352,13.024,22.352,25.695,0,14.96-11.616,25.519-31.855,25.519-9.328,0-17.952-2.288-23.936-5.807Z" transform="translate(0.5 0.5)"/><path class="cls-13" d="M376.173,427.97c0,31.5-21.823,45.23-42.415,45.23-23.055,0-40.83-16.895-40.83-43.822,0-28.512,18.655-45.231,42.239-45.231C359.629,384.147,376.173,401.923,376.173,427.97Zm-67.582.88c0,18.655,10.736,32.735,25.871,32.735,14.784,0,25.872-13.9,25.872-33.087,0-14.432-7.216-32.735-25.52-32.735S308.591,412.658,308.591,428.85Z" transform="translate(0.5 0.5)"/><path class="cls-13" d="M395.712,346.309H411.2V471.265H395.712Z" transform="translate(0.5 0.5)"/><path class="cls-13" d="M508.524,448.033c0,8.8.176,16.544.7,23.232H495.5l-.88-13.9h-.352A32.048,32.048,0,0,1,466.109,473.2c-13.376,0-29.392-7.391-29.392-37.31V386.083h15.489V433.25c0,16.191,4.927,27.1,19.006,27.1,10.384,0,17.6-7.215,20.417-14.079a22.668,22.668,0,0,0,1.407-7.92v-52.27h15.488Z" transform="translate(0.5 0.5)"/><path class="cls-13" d="M552.877,361.62v24.463h22.175v11.792H552.877V443.81c0,10.559,2.992,16.542,11.616,16.542a34.453,34.453,0,0,0,8.975-1.055l.7,11.616c-2.992,1.231-7.744,2.111-13.727,2.111-7.216,0-13.024-2.288-16.72-6.511-4.4-4.577-5.984-12.144-5.984-22.175V397.875h-13.2V386.083h13.2V365.668Z" transform="translate(0.5 0.5)"/><path class="cls-13" d="M609.722,362.147c.177,5.281-3.695,9.5-9.855,9.5a9.208,9.208,0,0,1-9.327-9.5,9.435,9.435,0,0,1,9.679-9.678C606.027,352.469,609.722,356.692,609.722,362.147ZM592.475,471.265V386.083h15.487v85.182Z" transform="translate(0.5 0.5)"/><path class="cls-13" d="M639.642,386.083l16.72,47.871a218.966,218.966,0,0,1,6.864,21.823h.528c1.936-7.04,4.4-14.08,7.215-21.823l16.544-47.871h16.192l-33.44,85.182H655.482L623.1,386.083Z" transform="translate(0.5 0.5)"/><path class="cls-13" d="M764.776,471.265l-1.232-10.736h-.529c-4.751,6.688-13.9,12.671-26.047,12.671-17.247,0-26.047-12.143-26.047-24.463,0-20.592,18.3-31.855,51.214-31.678V415.3c0-7.039-1.935-19.711-19.359-19.711a42.439,42.439,0,0,0-22.175,6.336l-3.52-10.208c7.04-4.576,17.248-7.568,27.983-7.568,26.047,0,32.383,17.776,32.383,34.847V450.85a119.935,119.935,0,0,0,1.408,20.415Zm-2.288-43.471c-16.9-.352-36.079,2.64-36.079,19.183,0,10.032,6.687,14.784,14.607,14.784a21.194,21.194,0,0,0,20.592-14.256,16.2,16.2,0,0,0,.88-4.928Z" transform="translate(0.5 0.5)"/><path class="cls-12" d="M46.69,354.41A117.726,117.726,0,0,1,60.9,352.549c5.389-.424,10.8-.623,16.21-.571,8.378.081,17.175.844,24.858,4.455a31.535,31.535,0,0,1,8.324,5.673,27.039,27.039,0,0,1,6.8,10.738,33.357,33.357,0,0,1-1.423,25.361,32.068,32.068,0,0,1-16.294,14.837c-.877.374-1.768.711-2.67,1.018-.045.016-.162.053-.162.124v.528c0,.11.14.171.226.2a21.916,21.916,0,0,1,9.463,6.566,34.615,34.615,0,0,1,6.1,11.364c.814,2.4,1.405,4.846,1.982,7.307q1,4.266,2.026,8.528c1.086,4.489,2.193,8.978,3.473,13.416a46.733,46.733,0,0,0,3.314,9.168l.375-.2H107.668l.594.21a27.726,27.726,0,0,1-2.164-5.526c-.991-3.157-1.826-6.363-2.63-9.572q-1.638-6.536-3.1-13.115a56,56,0,0,0-3-9.943c-2.053-4.788-5.3-8.943-10.124-11.137a31.279,31.279,0,0,0-13.022-2.308H61.557c-.079,0-.387.009-.387.148v50.611a2.453,2.453,0,0,0,0,.69.339.339,0,0,1,0,.09l.387-.148H46.246l.606.265V359.039c0-1.517.035-3.039,0-4.556,0-.065,0-.131,0-.2,0-.3-.993-.379-.993-.117V466.454c0,1.517-.035,3.039,0,4.556,0,.065,0,.131,0,.2,0,.221.47.266.606.266H61.776c.08,0,.387-.009.387-.149v-50.61a2.461,2.461,0,0,0,0-.691.339.339,0,0,1,0-.09l-.387.149H72.793c4.186,0,8.367.1,12.358,1.544a19.166,19.166,0,0,1,10.64,10.141,45.876,45.876,0,0,1,3.137,9.212c1.025,4.241,1.935,8.509,2.968,12.748.833,3.418,1.695,6.83,2.686,10.206A46.35,46.35,0,0,0,106.8,470.3c.152.328.313.651.493.965.1.174.424.211.595.211h15.839c.083,0,.471-.027.376-.2a42.761,42.761,0,0,1-2.978-8.02c-1.29-4.333-2.385-8.725-3.457-13.116q-1.014-4.156-1.989-8.322c-.629-2.672-1.214-5.353-2.045-7.971a36.5,36.5,0,0,0-5.925-11.74,22.927,22.927,0,0,0-10.4-7.471l.226.2V414.3l-.162.123a33.615,33.615,0,0,0,17.915-13.635,33.055,33.055,0,0,0,3.641-24.984,28.62,28.62,0,0,0-5.89-11.823,30.069,30.069,0,0,0-8.372-6.745c-7.2-3.979-15.614-5.2-23.718-5.565a162.64,162.64,0,0,0-16.494.2A143.708,143.708,0,0,0,49.2,353.463q-1.6.262-3.182.584c-.223.045-.149.177-.033.281A.954.954,0,0,0,46.69,354.41Z" transform="translate(0.5 0.5)"/><path class="cls-12" d="M61.776,408.466h14.66c7.335,0,14.917-1.322,20.716-6.142a20.309,20.309,0,0,0,6.262-9.123,24.9,24.9,0,0,0,.782-12.081,19.436,19.436,0,0,0-4.595-9.789,22.038,22.038,0,0,0-8.991-5.768,41.307,41.307,0,0,0-12.659-2.187,68.808,68.808,0,0,0-14.637.957c-.666.124-1.329.265-1.982.449-.046.013-.162.054-.162.123v41.516a8.375,8.375,0,0,0,0,1.7.366.366,0,0,1,0,.074c0,.3.993.379.993.117V365.682c0-.12.065-.482,0-.586-.008-.013,0-.056,0-.074l-.162.124a30.72,30.72,0,0,1,4.788-.858c2.492-.292,5-.436,7.508-.5a47.1,47.1,0,0,1,13.592,1.365,23.181,23.181,0,0,1,9.571,5.008,18.415,18.415,0,0,1,5.324,8.92c1.973,7.4.5,15.871-4.909,21.473s-13.4,7.493-20.956,7.493H61.557C60.877,408.052,61.343,408.466,61.776,408.466Z" transform="translate(0.5 0.5)"/><path class="cls-12" d="M149.345,431.432a36.012,36.012,0,0,0,3.22,15.017A24.758,24.758,0,0,0,160.63,456c7.84,5.476,17.753,5.839,26.943,4.844a54.675,54.675,0,0,0,15.484-4.033l-.9-.154,2.306,9.683.334,1.4.068-.147c-7.467,3.361-15.772,4.778-23.906,5.134-8.348.366-16.774-.516-24.349-4.268A35.963,35.963,0,0,1,141.485,454.3a46.989,46.989,0,0,1-5.893-21.992,56.62,56.62,0,0,1,4.227-24.195,40.023,40.023,0,0,1,13.727-17.278,37.951,37.951,0,0,1,22.039-6.475c7.63.076,15.177,2.254,21.057,7.251a35.832,35.832,0,0,1,10.317,15.819,51.444,51.444,0,0,1,2.744,17.624c-.042,2.14-.281,4.257-.52,6.381l.387-.149H157.088c-2.416,0-4.842-.069-7.257,0h-.1c-.68,0-.214.414.219.414h52.482c2.414,0,4.844.083,7.257,0h.1c.094,0,.371-.006.387-.148a59.223,59.223,0,0,0,.372-11.23,53.678,53.678,0,0,0-1.437-8.889,39.8,39.8,0,0,0-8.675-17.087,31.709,31.709,0,0,0-18.719-9.88,41.249,41.249,0,0,0-24.076,3.211,38.005,38.005,0,0,0-16.187,15.109,56.047,56.047,0,0,0-3.017,47.387,37,37,0,0,0,13.528,16.25,44.279,44.279,0,0,0,22.1,6.735,79.8,79.8,0,0,0,15.52-.788,65.278,65.278,0,0,0,11.954-2.829c1.408-.487,2.8-1.031,4.154-1.642a.112.112,0,0,0,.068-.147l-2.3-9.684-.335-1.4c-.064-.268-.722-.231-.9-.155a52.546,52.546,0,0,1-13.027,3.671,69.935,69.935,0,0,1-9.052.665,41.889,41.889,0,0,1-6.734-.393,28.4,28.4,0,0,1-11.181-4.071,24.131,24.131,0,0,1-8.112-8.787,34.817,34.817,0,0,1-3.779-16.042C150.332,431.243,149.34,431.174,149.345,431.432Z" transform="translate(0.5 0.5)"/><path class="cls-12" d="M195.745,420.461a32.213,32.213,0,0,0-2.2-12.512,20.163,20.163,0,0,0-8.825-10.351,23.934,23.934,0,0,0-16.746-1.9,22.125,22.125,0,0,0-12.743,9.052,34.05,34.05,0,0,0-5.468,13.87q-.142.861-.243,1.727c-.025.216.494.265.606.265h39.666c1.826,0,3.663.059,5.488,0h.077c.679,0,.214-.414-.219-.414H151.75a12.232,12.232,0,0,0-1.765,0,.5.5,0,0,1-.077,0l.606.266a35.024,35.024,0,0,1,4.405-13.522A23.009,23.009,0,0,1,166,396.9a22.125,22.125,0,0,1,16.776.29,19.071,19.071,0,0,1,9.294,9.577,30.821,30.821,0,0,1,2.678,12.164q.017.705,0,1.411C194.747,420.644,195.74,420.726,195.745,420.461Z" transform="translate(0.5 0.5)"/><path class="cls-12" d="M226.913,455.524a38.636,38.636,0,0,0,8.509,4.041,39.971,39.971,0,0,0,10.608,2.173c5.341.314,11.587-.522,15.5-4.545a12.558,12.558,0,0,0,2.8-11.787c-1.112-4.472-4.879-7.322-8.784-9.343-3-1.551-6.171-2.62-9.294-3.87a48.46,48.46,0,0,1-8.695-4.457c-4.248-2.8-7.993-6.577-9.866-11.382a21.892,21.892,0,0,1-.346-14,23.532,23.532,0,0,1,8.212-11.892,30.672,30.672,0,0,1,15.782-5.907,42.953,42.953,0,0,1,20.826,3.127,31.448,31.448,0,0,1,3.678,1.848l-.129-.158-3.391,9.865-.481,1.4.865-.041a33.923,33.923,0,0,0-17.316-5.03c-5.352-.094-11.349,1.584-14,6.669a10.9,10.9,0,0,0,1.2,11.949,18.946,18.946,0,0,0,5.636,4.15,88.488,88.488,0,0,0,9.1,3.914c5.394,2.112,10.814,4.8,14.954,8.937a21.74,21.74,0,0,1,6.238,12.98,25.539,25.539,0,0,1-2.317,14.352,23.767,23.767,0,0,1-9.86,9.993,38.063,38.063,0,0,1-16.842,4.267,50.964,50.964,0,0,1-21.58-3.594,34.754,34.754,0,0,1-4.145-2.06l.129.157,3.386-10.313.486-1.479c.074-.227-.894-.418-.993-.117L223.4,465.679l-.485,1.479c-.022.065.093.137.129.158a46.554,46.554,0,0,0,19.57,5.712,48.686,48.686,0,0,0,19.086-1.866,27.589,27.589,0,0,0,12.388-7.866,23.252,23.252,0,0,0,5.428-12.546,24.7,24.7,0,0,0-2.436-14.466c-2.414-4.491-6.431-7.824-10.784-10.349a61.253,61.253,0,0,0-8.423-3.976,82.648,82.648,0,0,1-9.2-3.982,16.877,16.877,0,0,1-5.532-4.3,9.871,9.871,0,0,1-1.977-5.709,10.893,10.893,0,0,1,1.883-6.685,12.152,12.152,0,0,1,6.272-4.464,23.02,23.02,0,0,1,10.379-.506,32.3,32.3,0,0,1,9.287,2.835,30.455,30.455,0,0,1,2.984,1.644c.171.108.773.226.865-.04l3.39-9.865.481-1.4c.022-.064-.094-.137-.129-.157a41.938,41.938,0,0,0-18.613-5.3,37.717,37.717,0,0,0-18.051,3,25.343,25.343,0,0,0-11.158,9.742,23.674,23.674,0,0,0-3.327,13.749,20.6,20.6,0,0,0,5.428,12.392c3.962,4.39,9.328,7.34,14.755,9.523,5.284,2.125,11.407,3.834,15.3,8.285a12.656,12.656,0,0,1,2.29,11.855c-1.494,4.833-6.017,7.513-10.768,8.387-7.088,1.3-14.648-.474-21.055-3.559a33.547,33.547,0,0,1-3.729-2.08C227.43,455.184,226.474,455.239,226.913,455.524Z" transform="translate(0.5 0.5)"/><path class="cls-12" d="M375.677,427.911c-.015,9.807-2.194,19.762-7.839,27.921a39.426,39.426,0,0,1-18.714,14.408,44.386,44.386,0,0,1-24,1.924,38.228,38.228,0,0,1-21.489-12.48c-6.076-7.085-9.251-16.208-10.014-25.431-.8-9.7.637-19.884,5.176-28.573a39.141,39.141,0,0,1,17.657-17.193,44.553,44.553,0,0,1,25.8-3.615,38.064,38.064,0,0,1,22.3,11.631c6.116,6.623,9.557,15.3,10.678,24.175a58.5,58.5,0,0,1,.446,7.233c0,.3.993.378.993.117-.014-9.457-2.233-19.05-7.559-26.97a38.2,38.2,0,0,0-20.279-15.079,46.977,46.977,0,0,0-26.879-.218,39.632,39.632,0,0,0-20.544,14.057c-5.77,7.658-8.489,17.164-8.915,26.659-.44,9.826,1.424,19.923,6.647,28.368a38.706,38.706,0,0,0,19.566,15.95,45.513,45.513,0,0,0,25.124,1.548A41.352,41.352,0,0,0,364.7,461.015c6.533-6.706,10.211-15.6,11.444-24.8a62.437,62.437,0,0,0,.528-8.188C376.67,427.726,375.677,427.649,375.677,427.911Z" transform="translate(0.5 0.5)"/><path class="cls-12" d="M308.1,428.791a40.109,40.109,0,0,0,4.909,19.9,26.018,26.018,0,0,0,12.931,11.518,23.906,23.906,0,0,0,17.083.016,26.047,26.047,0,0,0,12.891-11.6,40.55,40.55,0,0,0,4.921-20.138,43.518,43.518,0,0,0-3.339-16.873c-2.233-5.246-5.778-10.043-10.757-12.958a25.241,25.241,0,0,0-18.418-2.371,23.76,23.76,0,0,0-14.2,10.219,38.626,38.626,0,0,0-5.792,17.572c-.152,1.567-.224,3.141-.226,4.715,0,.3.993.379.993.117a43.659,43.659,0,0,1,3.59-17.852,25.727,25.727,0,0,1,11.442-12.625,23.914,23.914,0,0,1,18.479-1.173,23.66,23.66,0,0,1,12.26,10.965,40.427,40.427,0,0,1,4.787,16.1,43.547,43.547,0,0,1-2.463,19.364,28.938,28.938,0,0,1-10.7,14.017,22.13,22.13,0,0,1-16.209,3.307,23.471,23.471,0,0,1-14.127-9.035,35.949,35.949,0,0,1-6.762-17.779,47.135,47.135,0,0,1-.3-5.285C309.087,428.605,308.094,428.53,308.1,428.791Z" transform="translate(0.5 0.5)"/><path class="cls-12" d="M395.821,346.516h15.487l-.606-.266V469.323a12.764,12.764,0,0,0,0,1.671,1.5,1.5,0,0,1,0,.212l.387-.148H395.6l.606.265V351.439c0-1.618.034-3.241,0-4.86,0-.07,0-.141,0-.212,0-.3-.993-.378-.993-.117V466.134c0,1.618-.034,3.241,0,4.86,0,.07,0,.141,0,.212,0,.221.471.266.606.266h15.487c.08,0,.387-.009.387-.149V351.439c0-1.618.034-3.241,0-4.86,0-.07,0-.141,0-.212,0-.221-.47-.266-.606-.266H395.6C394.922,346.1,395.388,346.516,395.821,346.516Z" transform="translate(0.5 0.5)"/><path class="cls-12" d="M508.027,447.975c0,7.745.1,15.506.7,23.231l.387-.148H495.39l.606.265-.77-12.177-.11-1.726c-.014-.223-.457-.266-.606-.266a1.683,1.683,0,0,0-.576.025c-.241.1-.36.445-.494.661q-.476.765-.994,1.5a32.766,32.766,0,0,1-2.4,3.023,32.123,32.123,0,0,1-6.784,5.771,32.555,32.555,0,0,1-19.3,4.8,27.916,27.916,0,0,1-11.723-3.21,25.38,25.38,0,0,1-9.876-9.906c-3.211-5.686-4.544-12.264-4.984-18.722-.191-2.816-.169-5.634-.169-8.454v-46.5l-.387.149h15.488l-.606-.266v44.431c0,5.332.081,10.687,1.48,15.873a21,21,0,0,0,5,9.4,16.54,16.54,0,0,0,9.3,4.548,22.576,22.576,0,0,0,13.79-2.08,23.456,23.456,0,0,0,9.48-9.1,21.539,21.539,0,0,0,2.768-10.9q0-1.836,0-3.672V386.141l-.387.149h15.488l-.606-.266v61.019a4.639,4.639,0,0,0,0,.825.546.546,0,0,1,0,.107c0,.3.994.378.994.117V387.073a4.639,4.639,0,0,0,0-.825.546.546,0,0,1,0-.107c0-.221-.471-.265-.606-.265H492.926c-.079,0-.387.009-.387.148v50.418c0,1.241.024,2.486-.076,3.725a20.359,20.359,0,0,1-2.126,7.761,23.779,23.779,0,0,1-3.68,5.223,21.524,21.524,0,0,1-12.312,6.74,18.966,18.966,0,0,1-12.067-1.808,16.231,16.231,0,0,1-6.63-7.56c-2.609-5.689-2.946-12.127-2.946-18.291V386.141c0-.221-.47-.265-.606-.265H436.608c-.08,0-.387.009-.387.148v44.754c0,1.831-.009,3.661,0,5.491.037,7.006.909,14.22,3.75,20.687a27.193,27.193,0,0,0,9.133,11.477,27.947,27.947,0,0,0,11.776,4.574,34.953,34.953,0,0,0,17.7-1.805,32.594,32.594,0,0,0,16.158-13.732l-.363.1h.351l-.606-.265.771,12.177.109,1.726c.014.223.458.266.606.266h13.728c.069,0,.4-.012.387-.149-.6-7.725-.7-15.486-.7-23.231C509.021,447.789,508.027,447.713,508.027,447.975Z" transform="translate(0.5 0.5)"/><path class="cls-12" d="M552.38,361.562v24.462c0,.222.471.266.606.266h22.176l-.606-.266v11.792l.387-.148H552.767c-.079,0-.387.009-.387.148v42.032c0,4.156-.17,8.4.959,12.439a10.633,10.633,0,0,0,5.554,7.168,13.13,13.13,0,0,0,4.861,1.084,34.8,34.8,0,0,0,7.384-.485c.9-.151,1.787-.338,2.665-.575l-.831-.241.545,9,.127,2.088a1.471,1.471,0,0,1,.027.442c-.009.021.016.064,0,.083-.022.035-.734.218-.87.265a34.18,34.18,0,0,1-8.669,1.572c-6.35.444-13.136-.2-18.187-4.475-4.194-3.545-6.17-8.568-7.025-13.878-.944-5.861-.688-11.9-.688-17.819V397.933c0-.221-.47-.265-.606-.265h-13.2l.606.265V386.141l-.387.149h13.2c.08,0,.387-.009.387-.149V365.726l-.162.124,13.226-3.537,1.91-.511c.216-.058.158-.17.033-.281a.938.938,0,0,0-.7-.083l-13.226,3.537-1.91.511c-.045.012-.162.055-.162.123v20.415l.387-.148h-13.2c-.079,0-.387.009-.387.148v11.792c0,.222.471.266.606.266h13.2l-.606-.266V443.4a74.111,74.111,0,0,0,.471,9.3c.577,4.562,1.781,9.316,4.756,12.939a20.52,20.52,0,0,0,12.348,7.073,37.045,37.045,0,0,0,8.668.441,41.352,41.352,0,0,0,8.219-1.152,22.576,22.576,0,0,0,2.883-.942.13.13,0,0,0,.08-.092l-.616-10.16-.088-1.457c-.017-.286-.644-.291-.831-.24a31.1,31.1,0,0,1-6.305.963,17.181,17.181,0,0,1-6.249-.46,9.621,9.621,0,0,1-6.023-6.512c-1.346-4.041-1.184-8.365-1.184-12.572V399.211a4.887,4.887,0,0,0,0-1.134.63.63,0,0,1,0-.144l-.387.149h22.176c.079,0,.387-.009.387-.149V386.141c0-.221-.471-.265-.606-.265H552.767l.606.265V361.679C553.373,361.376,552.38,361.3,552.38,361.562Z" transform="translate(0.5 0.5)"/><path class="cls-12" d="M609.226,362.089a8.863,8.863,0,0,1-5.389,8.579,9.171,9.171,0,0,1-10.852-2.551,10.052,10.052,0,0,1-.689-10.839,9.351,9.351,0,0,1,9.926-4.425c4.413.88,6.973,4.915,7,9.236,0,.3,1,.377.993.117a9.635,9.635,0,0,0-6.237-9.3c-3.935-1.4-8.742-.561-11.555,2.646a10.212,10.212,0,0,0-.984,11.724c2.265,3.752,6.746,5.139,10.915,4.377a9.79,9.79,0,0,0,5.786-3.206,9.271,9.271,0,0,0,2.075-6.237C610.211,361.9,609.219,361.833,609.226,362.089Z" transform="translate(0.5 0.5)"/><path class="cls-12" d="M592.972,471.323V387.414a5.119,5.119,0,0,0,0-1.134.587.587,0,0,1,0-.139l-.387.149h15.487l-.606-.266v83.909a5.128,5.128,0,0,0,0,1.135.637.637,0,0,1,0,.138l.387-.148H592.366c-.68,0-.214.414.219.414h15.487c.079,0,.387-.009.387-.149v-81.73a31.292,31.292,0,0,0,0-3.313,1.289,1.289,0,0,1,0-.139c0-.221-.471-.265-.606-.265H592.366c-.08,0-.387.009-.387.148v81.731a31.292,31.292,0,0,0,0,3.313,1.271,1.271,0,0,1,0,.138C591.979,471.509,592.972,471.585,592.972,471.323Z" transform="translate(0.5 0.5)"/><path class="cls-12" d="M639.157,386.079l2.187,6.261,5.023,14.383,5.483,15.7,3.629,10.39c2.237,6.405,4.508,12.785,6.309,19.332q.5,1.811.953,3.631c.044.174.474.21.6.21h.527c.115,0,.348-.006.387-.148,2.1-7.6,4.841-14.951,7.411-22.389l3.2-9.244,5.331-15.425,5.145-14.889,1.778-5.145.564-1.63a3.847,3.847,0,0,0,.3-.862.487.487,0,0,1,.038-.111l-.387.149h16.191l-.606-.266-.9,2.286-2.427,6.183-3.606,9.184L691.9,414.83,687.082,427.1l-4.842,12.333L677.7,450.992l-3.816,9.722-2.759,7.027-.855,2.177a6.961,6.961,0,0,0-.45,1.147.935.935,0,0,1-.055.141l.387-.148H655.373l.594.21-.869-2.285-2.35-6.181-3.49-9.183-4.24-11.151L640.353,430.2l-4.71-12.388-4.371-11.5-3.711-9.763-2.657-6.989-.832-2.186a5.991,5.991,0,0,0-.434-1.142.757.757,0,0,1-.054-.142l-.375.2h16.543c.679,0,.214-.414-.219-.414H622.99c-.1,0-.446.019-.376.2l.869,2.286,2.35,6.181,3.491,9.182,4.239,11.152,4.665,12.272,4.71,12.389,4.371,11.5,3.712,9.762,2.657,6.989c.415,1.093.752,2.276,1.265,3.329.022.045.036.095.054.142.067.176.453.211.594.211h14.784c.128,0,.331-.008.387-.149l.9-2.286,2.427-6.182,3.606-9.184,4.378-11.154,4.818-12.274,4.842-12.333,4.536-11.555,3.816-9.721,2.759-7.027.854-2.177a7.7,7.7,0,0,0,.451-1.148.978.978,0,0,1,.055-.141c.078-.2-.542-.265-.606-.265H687.4c-.123,0-.338.007-.387.148l-2.17,6.279-4.963,14.359-5.433,15.722-3.583,10.368c-2.225,6.437-4.614,12.808-6.568,19.337q-.542,1.809-1.043,3.63l.387-.149h-.527l.594.211c-1.908-7.611-4.477-14.988-7.061-22.387l-3.236-9.266-5.38-15.4-5.209-14.915-1.792-5.13a19.324,19.324,0,0,0-.867-2.485.831.831,0,0,1-.039-.109C640.035,385.822,639.057,385.794,639.157,386.079Z" transform="translate(0.5 0.5)"/><path class="cls-12" d="M765.273,471.323l-1.076-9.371-.157-1.364c-.026-.224-.447-.266-.606-.266-.26,0-.67-.068-.891.1a3.04,3.04,0,0,0-.439.6q-.273.36-.557.712a27.949,27.949,0,0,1-2.268,2.474,30.171,30.171,0,0,1-5.845,4.413,32.973,32.973,0,0,1-16.357,4.374,27.437,27.437,0,0,1-14.7-3.82,22.942,22.942,0,0,1-8.513-9.518,27.262,27.262,0,0,1-.2-22.271c2.937-6.71,8.772-11.465,15.32-14.453,8.976-4.1,19.124-5.357,28.9-5.619q2.179-.058,4.36-.045c.079,0,.387-.009.387-.149,0-5.122-.383-10.4-3.443-14.729-4.855-6.871-14.17-7.654-21.85-6.661a41.743,41.743,0,0,0-17.155,6.045l.9.154-3.073-8.91-.447-1.3-.068.148a48.081,48.081,0,0,1,18.2-6.723,49.939,49.939,0,0,1,19.512.285,25.619,25.619,0,0,1,19.117,16.859c2.29,6.162,2.626,12.66,2.626,19.16v21.379c0,7.857-.144,15.743.719,23.565.178,1.612.4,3.219.69,4.815l.387-.148H764.667c-.68,0-.215.414.218.414h14.08c.058,0,.411-.016.387-.149-1.565-8.7-1.409-17.58-1.409-26.384V422.724c0-1.989.03-3.983-.039-5.971a47.978,47.978,0,0,0-2.056-12.848,28.942,28.942,0,0,0-6.072-10.843,26.61,26.61,0,0,0-11.489-7.21,46.77,46.77,0,0,0-18.206-1.711,53.961,53.961,0,0,0-19.56,5.231,39.3,39.3,0,0,0-3.857,2.192c-.061.039-.093.075-.068.147l3.073,8.911.447,1.3c.083.241.722.27.9.155a40.407,40.407,0,0,1,14.729-5.63c4.724-.843,9.868-1.1,14.508.336a15.086,15.086,0,0,1,7.765,5.325,18.206,18.206,0,0,1,3.1,7.362,38.853,38.853,0,0,1,.519,7.533l.387-.149c-10.373-.048-21.09.85-30.871,4.534-6.968,2.624-13.553,6.928-17.3,13.53a27.616,27.616,0,0,0-2.077,21.988,23.61,23.61,0,0,0,7.177,10.528,26.33,26.33,0,0,0,12.981,5.6c10.624,1.61,22.105-1.8,29.451-9.8a27.281,27.281,0,0,0,2.1-2.6l-.363.1h.528l-.606-.265,1.076,9.371.156,1.364C764.316,471.522,765.3,471.556,765.273,471.323Z" transform="translate(0.5 0.5)"/><path class="cls-12" d="M762.378,427.587a92.044,92.044,0,0,0-13.707.63,42.769,42.769,0,0,0-12.048,3.138,18.593,18.593,0,0,0-8.406,6.883,17.4,17.4,0,0,0-2.068,11.811,13.518,13.518,0,0,0,6.367,9.76c3.684,2.166,8.188,2.506,12.34,1.892a21.664,21.664,0,0,0,12.23-6.076,19.922,19.922,0,0,0,5.85-11.935c.2-2.277.048-4.618.048-6.9v-8.939c0-.3-.993-.378-.993-.117v14.188c0,8-5.632,15.287-12.962,18.151a19.888,19.888,0,0,1-13.433.622,12.624,12.624,0,0,1-7.783-7.837,17.978,17.978,0,0,1,.284-12.312,16.177,16.177,0,0,1,7.026-7.7,34.1,34.1,0,0,1,11.182-3.8,76.989,76.989,0,0,1,13.1-1.076c1.063-.007,2.126,0,3.189.024C763.278,428.015,762.809,427.6,762.378,427.587Z" transform="translate(0.5 0.5)"/></svg>